<svg width="25" height="25" viewBox="0 0 25 25" fill="none" xmlns="http://www.w3.org/2000/svg">
<path fill-rule="evenodd" clip-rule="evenodd" d="M12.5 0C9.1052 0 8.67953 0.014375 7.3463 0.0752083C6.01578 0.135885 5.10714 0.347239 4.31203 0.65625C3.49005 0.975677 2.79297 1.40307 2.09797 2.09797C1.40307 2.79297 0.975677 3.49005 0.65625 4.31203C0.347239 5.10714 0.135885 6.01578 0.0752083 7.34625C0.014375 8.67953 0 9.1052 0 12.5C0 15.8948 0.014375 16.3205 0.0752083 17.6537C0.135885 18.9842 0.347239 19.8928 0.65625 20.688C0.975677 21.51 1.40307 22.207 2.09797 22.902C2.79297 23.5969 3.49005 24.0244 4.31203 24.3438C5.10714 24.6528 6.01578 24.8641 7.3463 24.9248C8.67953 24.9856 9.1052 25 12.5 25C15.8948 25 16.3205 24.9856 17.6537 24.9248C18.9842 24.8641 19.8928 24.6528 20.688 24.3438C21.51 24.0244 22.207 23.5969 22.902 22.902C23.5969 22.207 24.0244 21.51 24.3438 20.688C24.6528 19.8928 24.8641 18.9842 24.9248 17.6537C24.9856 16.3205 25 15.8948 25 12.5C25 9.1052 24.9856 8.67953 24.9248 7.34625C24.8641 6.01578 24.6528 5.10714 24.3438 4.31203C24.0244 3.49005 23.5969 2.79297 22.902 2.09797C22.207 1.40307 21.51 0.975677 20.688 0.65625C19.8928 0.347239 18.9842 0.135885 17.6537 0.0752083C16.3205 0.014375 15.8948 0 12.5 0ZM12.5 2.25223C15.8377 2.25223 16.233 2.265 17.5511 2.32516C18.7698 2.38073 19.4317 2.58433 19.8722 2.75552C20.4556 2.9823 20.872 3.25317 21.3094 3.69062C21.7469 4.12797 22.0177 4.54437 22.2445 5.12786C22.4156 5.56833 22.6192 6.2302 22.6748 7.44891C22.735 8.76698 22.7478 9.16234 22.7478 12.5C22.7478 15.8377 22.735 16.233 22.6748 17.5511C22.6192 18.7698 22.4156 19.4317 22.2445 19.8722C22.0177 20.4556 21.7469 20.872 21.3094 21.3094C20.872 21.7469 20.4556 22.0177 19.8722 22.2445C19.4317 22.4156 18.7698 22.6192 17.5511 22.6748C16.2331 22.735 15.838 22.7478 12.5 22.7478C9.16208 22.7478 8.76683 22.735 7.44891 22.6748C6.2302 22.6192 5.56833 22.4156 5.12786 22.2445C4.54437 22.0177 4.12802 21.7469 3.69058 21.3094C3.25323 20.872 2.9823 20.4556 2.75552 19.8722C2.58433 19.4317 2.38073 18.7698 2.32516 17.5511C2.265 16.233 2.25223 15.8377 2.25223 12.5C2.25223 9.16234 2.265 8.76698 2.32516 7.44891C2.38073 6.2302 2.58433 5.56833 2.75552 5.12786C2.9823 4.54437 3.25317 4.12797 3.69058 3.69062C4.12802 3.25317 4.54437 2.9823 5.12786 2.75552C5.56833 2.58433 6.2302 2.38073 7.44891 2.32516C8.76698 2.265 9.16234 2.25223 12.5 2.25223ZM6.08109 12.5C6.08109 8.95489 8.95489 6.08109 12.5 6.08109C16.0452 6.08109 18.9189 8.95489 18.9189 12.5C18.9189 16.0452 16.0452 18.9189 12.5 18.9189C8.95489 18.9189 6.08109 16.0452 6.08109 12.5ZM12.5 16.6667C10.1988 16.6667 8.33333 14.8012 8.33333 12.5C8.33333 10.1988 10.1988 8.33333 12.5 8.33333C14.8012 8.33333 16.6667 10.1988 16.6667 12.5C16.6667 14.8012 14.8012 16.6667 12.5 16.6667ZM19.1725 7.32745C20.0009 7.32745 20.6725 6.65594 20.6725 5.8275C20.6725 4.99906 20.0009 4.32745 19.1725 4.32745C18.3441 4.32745 17.6725 4.99906 17.6725 5.8275C17.6725 6.65594 18.3441 7.32745 19.1725 7.32745Z" fill="white"/>
</svg>
