<svg width="26" height="32" viewBox="0 0 26 32" fill="none" xmlns="http://www.w3.org/2000/svg">
<path d="M8.51915 23.6475C10.9891 26.1175 15.0108 26.1175 17.4808 23.6475C19.9508 21.1775 19.9508 17.1558 17.4808 14.6858L8.51915 23.6475ZM22.5 0.182459L3.49998 0.166626C1.74248 0.166626 0.333313 1.57579 0.333313 3.33329V28.6666C0.333313 30.4241 1.74248 31.8333 3.49998 31.8333H22.5C24.2575 31.8333 25.6666 30.4241 25.6666 28.6666V3.33329C25.6666 1.57579 24.2575 0.182459 22.5 0.182459ZM9.83331 3.33329C10.7041 3.33329 11.4166 4.04579 11.4166 4.91663C11.4166 5.78746 10.7041 6.49996 9.83331 6.49996C8.96248 6.49996 8.24998 5.78746 8.24998 4.91663C8.24998 4.04579 8.96248 3.33329 9.83331 3.33329ZM5.08331 3.33329C5.95415 3.33329 6.66665 4.04579 6.66665 4.91663C6.66665 5.78746 5.95415 6.49996 5.08331 6.49996C4.21248 6.49996 3.49998 5.78746 3.49998 4.91663C3.49998 4.04579 4.21248 3.33329 5.08331 3.33329ZM13 28.6666C7.75915 28.6666 3.49998 24.4075 3.49998 19.1666C3.49998 13.9258 7.75915 9.66663 13 9.66663C18.2408 9.66663 22.5 13.9258 22.5 19.1666C22.5 24.4075 18.2408 28.6666 13 28.6666Z" fill="#007FDB"/>
</svg>
