<svg width="30" height="27" viewBox="0 0 30 27" fill="none" xmlns="http://www.w3.org/2000/svg">
<path d="M25.9567 2.51579C25.64 1.58163 24.7533 0.916626 23.7083 0.916626H6.29167C5.24667 0.916626 4.37583 1.58163 4.04333 2.51579L0.75 12V24.6666C0.75 25.5375 1.4625 26.25 2.33333 26.25H3.91667C4.7875 26.25 5.5 25.5375 5.5 24.6666V23.0833H24.5V24.6666C24.5 25.5375 25.2125 26.25 26.0833 26.25H27.6667C28.5375 26.25 29.25 25.5375 29.25 24.6666V12L25.9567 2.51579ZM6.29167 18.3333C4.9775 18.3333 3.91667 17.2725 3.91667 15.9583C3.91667 14.6441 4.9775 13.5833 6.29167 13.5833C7.60583 13.5833 8.66667 14.6441 8.66667 15.9583C8.66667 17.2725 7.60583 18.3333 6.29167 18.3333ZM23.7083 18.3333C22.3942 18.3333 21.3333 17.2725 21.3333 15.9583C21.3333 14.6441 22.3942 13.5833 23.7083 13.5833C25.0225 13.5833 26.0833 14.6441 26.0833 15.9583C26.0833 17.2725 25.0225 18.3333 23.7083 18.3333ZM3.91667 10.4166L6.29167 3.29163H23.7083L26.0833 10.4166H3.91667Z" fill="#007FDB"/>
</svg>
