<svg xmlns="http://www.w3.org/2000/svg"><symbol style="enable-background:new 0 0 490.1 105.6" id="sprite-browserstack-logo" viewBox="0 0 490.1 105.6"><title>Browserstack-logo-white</title><circle cx="52.8" cy="52.8" r="52.8" style="fill:#f4b960"/><circle cx="47.5" cy="47.5" r="47.5" style="fill:#e66f32"/><circle cx="53.8" cy="41.1" r="41.1" style="fill:#e43c41"/><circle cx="57.1" cy="44.4" r="37.8" style="fill:#bdd041"/><circle cx="54.3" cy="47.2" r="35.1" style="fill:#6db54c"/><circle cx="48.8" cy="41.7" r="29.5" style="fill:#aedae6"/><circle cx="53.6" cy="36.8" r="24.7" style="fill:#56b8de"/><circle cx="56.6" cy="39.9" r="21.7" style="fill:#00b1d5"/><radialGradient id="SVGID_1_" cx="53.45" cy="63.02" r="18.57" gradientTransform="matrix(1 0 0 -1 0 106)" gradientUnits="userSpaceOnUse"><stop offset="0" style="stop-color:#797979"/><stop offset="1" style="stop-color:#4c4c4c"/></radialGradient><circle cx="53.5" cy="43" r="18.6" style="fill:url(#SVGID_1_)"/><circle cx="53.5" cy="43" r="18.6" style="fill:#221f1f"/><ellipse transform="rotate(-65.832 60.867 36.231)" cx="60.9" cy="36.2" rx="5.7" ry="3.7" style="fill:#fff"/><path d="M122.5 32.6c0-.3.3-.6.6-.6h16.7c9.5 0 13.9 4.4 13.9 11 .2 3.7-1.8 7.2-5.2 8.8v.1c3.7 1.5 6.1 5.2 6 9.3 0 8.2-5.6 12.2-15.4 12.2h-16c-.3 0-.6-.2-.7-.5v-.1l.1-40.2zm17.1 16.5c3.9 0 6.4-2.2 6.4-5.4s-2.4-5.5-6.4-5.5h-8.9c-.2 0-.4.1-.4.3v10.3c0 .2.1.3.3.4h9v-.1zm-9 17.8h9.3c4.3 0 6.8-2.3 6.8-5.8s-2.4-5.7-6.7-5.7h-9.3c-.2 0-.4.1-.4.3v10.8c0 .3.1.4.3.4zm29.3 6.4c-.3 0-.6-.2-.7-.5V44.6c0-.3.3-.6.6-.6h6.1c.3 0 .6.2.7.5v2.6h.1c1.5-2.2 4.2-3.8 8.2-3.8 2.4 0 4.8.8 6.6 2.4.3.3.4.5.1.8l-3.5 4.1c-.2.3-.6.4-.9.2h-.1c-1.4-.9-3-1.4-4.7-1.4-4.1 0-6 2.7-6 7.4v15.9c0 .3-.3.6-.6.6h-5.9zm23-7.5c-.8-2.3-1.1-4.8-1.1-7.2-.1-2.5.3-4.9 1.1-7.2 1.8-5.1 6.6-8.1 13.1-8.1s11.2 3 13 8.1c.8 2.3 1.1 4.8 1.1 7.2.1 2.5-.3 4.9-1.1 7.2-1.8 5.1-6.6 8.1-13 8.1s-11.3-2.9-13.1-8.1zm19-1.8c.5-1.7.8-3.6.7-5.4.1-1.8-.1-3.7-.7-5.4-.9-2.5-3.3-4-5.9-3.8-2.6-.2-5.1 1.4-6 3.8-.5 1.8-.8 3.6-.7 5.4-.1 1.8.1 3.7.7 5.4.9 2.5 3.4 4 6 3.8 2.6.2 5-1.3 5.9-3.8zm40 9.3c-.4 0-.7-.3-.8-.6L235 53.9h-.1l-6.2 18.7c-.1.4-.4.6-.8.6h-5.4c-.4 0-.7-.3-.8-.6l-10-28.1c-.1-.2 0-.5.2-.6.1 0 .2-.1.3 0h6.3c.4 0 .8.2.9.6l6.1 19.3h.1l6-19.3c.1-.4.5-.6.9-.6h4.7c.4 0 .7.2.9.6l6.4 19.3h.1l5.8-19.3c.1-.4.5-.7.9-.6h6.3c.2-.1.5.1.5.3v.3l-10 28.1c-.1.4-.4.6-.8.6l-5.4.1zm17.4-4c-.2-.2-.3-.6-.1-.8l.1-.1 3.7-3.6c.3-.2.7-.2.9 0 2.6 2.1 5.9 3.3 9.3 3.3 3.9 0 5.9-1.5 5.9-3.5 0-1.8-1.1-2.9-5.2-3.2l-3.4-.3c-6.4-.6-9.7-3.6-9.7-8.6 0-5.7 4.4-9.2 12.3-9.2 4.2-.1 8.4 1.2 11.9 3.6.3.2.3.5.2.8v.1l-3.2 3.6c-.2.3-.6.3-.9.1-2.5-1.5-5.4-2.4-8.3-2.4-3.1 0-4.8 1.3-4.8 3s1.1 2.7 5.2 3.1l3.4.3c6.6.6 9.8 3.8 9.8 8.6 0 5.8-4.6 9.9-13.3 9.9-5.1 0-9.9-1.6-13.8-4.7zm31.9-3.5c-.8-2.3-1.2-4.7-1.1-7.2-.1-2.5.3-4.9 1-7.2 1.8-5.1 6.6-8.1 12.9-8.1 6.5 0 11.2 3.1 13 8.1.7 2.1 1 4.1 1 8.8 0 .3-.3.6-.6.6h-19.6c-.2 0-.4.1-.4.3v.1c0 .8.2 1.5.5 2.2 1 2.9 3.5 4.4 7.1 4.4 2.7.1 5.4-.9 7.4-2.8.2-.3.7-.4 1-.1l3.9 3.2c.2.1.3.5.2.7 0 .1-.1.1-.1.1-2.7 2.9-7.2 5-13 5-6.6 0-11.4-3-13.2-8.1zm19.2-13c-.9-2.4-3.2-3.8-6.2-3.8s-5.4 1.4-6.2 3.8c-.3.8-.4 1.6-.4 2.5 0 .2.1.3.3.4h12.5c.2 0 .4-.1.4-.3v-.1c0-.8-.2-1.7-.4-2.5zm13.2 20.5c-.3 0-.6-.2-.7-.5V44.6c0-.3.3-.6.6-.6h6.1c.3 0 .6.2.7.5v2.6h.1c1.5-2.2 4.2-3.8 8.2-3.8 2.4 0 4.8.8 6.6 2.4.3.3.4.5.1.8l-3.5 4.1c-.2.3-.6.4-.9.2h-.1c-1.4-.9-3-1.4-4.7-1.4-4.1 0-6 2.7-6 7.4v15.9c0 .3-.3.6-.6.6h-5.9zm22.9-4.8c-.3-.2-.4-.6-.2-.9l4.1-4.4c.2-.3.6-.3.9-.1 3.5 2.7 7.7 4.2 12.1 4.4 5.3 0 8.4-2.5 8.4-6 0-3-2-4.9-8.1-5.7l-2.4-.3c-8.6-1.1-13.5-4.9-13.5-11.8 0-7.5 5.9-12.4 15.1-12.4 5.1-.1 10.1 1.4 14.5 4.2.3.1.4.4.2.7 0 .1-.1.1-.1.2l-3.1 4.5c-.2.3-.6.4-.9.2-3.2-2.1-6.9-3.2-10.7-3.2-4.5 0-7 2.3-7 5.5 0 2.9 2.2 4.8 8.2 5.6l2.4.3c8.6 1.1 13.3 4.9 13.3 12 0 7.3-5.7 12.8-16.8 12.8-6.6-.2-12.9-2.6-16.4-5.6zm46.8 5.3c-6.4 0-8.8-2.9-8.8-8.6V49.8c0-.2-.1-.3-.3-.4H382c-.3 0-.6-.2-.7-.5v-4.2c0-.3.3-.6.6-.6h2.2c.2 0 .4-.1.4-.3v-8.1c0-.3.3-.6.6-.6h6.1c.3 0 .6.2.7.5v8.1c0 .2.1.3.3.4h4.3c.3 0 .6.2.7.5v4.2c0 .3-.3.6-.6.6h-4.3c-.2 0-.4.1-.4.3V65c0 2.1.9 2.7 3 2.7h1.6c.3 0 .6.2.7.5v5c0 .3-.3.6-.6.6h-3.3zm27.9-.5c-.3 0-.6-.2-.7-.5v-2.2c-1.5 2-4.5 3.4-8.9 3.4-5.8 0-10.6-2.8-10.6-8.9 0-6.4 4.9-9.3 12.7-9.3h6.4c.2 0 .4-.1.4-.3V54c0-3.3-1.7-4.9-7-4.9-2.6-.1-5.1.6-7.2 2-.3.2-.7.2-.9-.1v-.1l-2.4-4c-.2-.2-.1-.6.1-.8 2.6-1.7 6-2.9 11.2-2.9 9.6 0 13.2 3 13.2 10.2v19.1c0 .3-.3.6-.6.6h-5.7v.2zm-.8-9.9v-2.2c0-.2-.1-.3-.3-.4h-5.3c-4.7 0-6.8 1.2-6.8 3.9 0 2.4 1.9 3.6 5.5 3.6 4.4.1 6.9-1.5 6.9-4.9zm12.7 2.4c-.7-2.3-1.1-4.8-1-7.2-.1-2.4.3-4.9 1-7.2 1.8-5.2 6.7-8.1 13.1-8.1 4.2-.2 8.2 1.5 11 4.6.2.2.2.6 0 .8l-.1.1-4.1 3.3c-.3.2-.7.2-.9-.1v-.1c-1.5-1.7-3.6-2.6-5.9-2.5-2.8 0-5 1.3-5.9 3.8-.5 1.8-.8 3.6-.7 5.4-.1 1.8.1 3.7.7 5.5.9 2.5 3.1 3.8 5.9 3.8 2.2.1 4.4-.9 5.9-2.6.2-.3.6-.3.9-.1l4.1 3.3c.3.2.3.5.1.8l-.1.1c-2.9 3-6.9 4.6-11 4.5-6.3 0-11.1-2.8-13-8.1zm49.7 7.5c-.4 0-.8-.2-1-.6l-8-12.3-4.3 4.6v7.7c0 .3-.3.6-.6.6h-6.1c-.3 0-.6-.2-.7-.5V32.6c0-.3.3-.6.6-.6h6.1c.3 0 .6.2.7.5v23.9l10.8-11.8c.3-.4.8-.6 1.2-.6h6.7c.2 0 .4.1.4.3 0 .1 0 .3-.1.3l-10.1 10.7L490 72.7c.1.2.1.4 0 .5-.1.1-.2.1-.3.1h-6.9z" style="fill:#000111"/></symbol><symbol fill="none" id="sprite-breakfast" viewBox="0 0 29 30"><title>breakfast</title><path d="M25.667.75H.333v15.833c0 3.5 2.834 6.334 6.334 6.334h9.5a6.332 6.332 0 0 0 6.333-6.334v-4.75h3.167a3.166 3.166 0 0 0 3.166-3.166v-4.75A3.156 3.156 0 0 0 25.667.75Zm0 7.917H22.5v-4.75h3.167v4.75ZM.333 26.083h25.334v3.167H.333v-3.167Z" fill="#007FDB"/></symbol><symbol fill="none" id="sprite-eco_loft" viewBox="0 0 37 39"><title>eco_loft</title><path d="M11.804 16.104 11.792 18H1.196V.804h10.596V2.7H3.524v5.712h6.696v1.824H3.524v5.868h8.28Zm10.614-8.1a.954.954 0 0 1-.192.204.431.431 0 0 1-.264.072.73.73 0 0 1-.396-.144 5.481 5.481 0 0 0-.54-.336 3.82 3.82 0 0 0-.78-.324c-.304-.104-.68-.156-1.128-.156-.6 0-1.128.108-1.584.324-.456.208-.84.512-1.152.912-.304.4-.536.884-.696 1.452a7.383 7.383 0 0 0-.228 1.908c0 .736.084 1.392.252 1.968.168.568.404 1.048.708 1.44.312.384.684.68 1.116.888.44.2.932.3 1.476.3.52 0 .948-.06 1.284-.18.336-.128.612-.268.828-.42.224-.152.408-.288.552-.408.152-.128.3-.192.444-.192a.47.47 0 0 1 .408.204l.6.78a4.257 4.257 0 0 1-.9.84c-.336.232-.7.428-1.092.588a6.023 6.023 0 0 1-1.212.336 7.728 7.728 0 0 1-1.296.108c-.76 0-1.468-.14-2.124-.42a4.878 4.878 0 0 1-1.692-1.212c-.48-.536-.856-1.192-1.128-1.968-.272-.776-.408-1.66-.408-2.652 0-.904.124-1.74.372-2.508a5.747 5.747 0 0 1 1.104-1.98 5.053 5.053 0 0 1 1.788-1.308c.712-.312 1.528-.468 2.448-.468.856 0 1.608.14 2.256.42a5.32 5.32 0 0 1 1.74 1.164l-.564.768Zm7.914-2.352c.888 0 1.688.148 2.4.444.712.296 1.32.716 1.824 1.26s.888 1.204 1.152 1.98c.272.768.408 1.628.408 2.58 0 .96-.136 1.824-.408 2.592a5.47 5.47 0 0 1-1.152 1.968 5.143 5.143 0 0 1-1.824 1.26c-.712.288-1.512.432-2.4.432-.896 0-1.704-.144-2.424-.432a5.143 5.143 0 0 1-1.824-1.26 5.61 5.61 0 0 1-1.164-1.968c-.264-.768-.396-1.632-.396-2.592 0-.952.132-1.812.396-2.58.272-.776.66-1.436 1.164-1.98a5.143 5.143 0 0 1 1.824-1.26c.72-.296 1.528-.444 2.424-.444Zm0 10.848c1.2 0 2.096-.4 2.688-1.2.592-.808.888-1.932.888-3.372 0-1.448-.296-2.576-.888-3.384-.592-.808-1.488-1.212-2.688-1.212-.608 0-1.14.104-1.596.312a3.015 3.015 0 0 0-1.128.9c-.296.392-.52.876-.672 1.452a7.882 7.882 0 0 0-.216 1.932c0 1.44.296 2.564.888 3.372.6.8 1.508 1.2 2.724 1.2ZM2.9 20.324V38H.764V20.324H2.9Zm8.588 5.328c.888 0 1.688.148 2.4.444.712.296 1.32.716 1.824 1.26s.888 1.204 1.152 1.98c.272.768.408 1.628.408 2.58 0 .96-.136 1.824-.408 2.592a5.47 5.47 0 0 1-1.152 1.968 5.143 5.143 0 0 1-1.824 1.26c-.712.288-1.512.432-2.4.432-.896 0-1.704-.144-2.424-.432a5.143 5.143 0 0 1-1.824-1.26 5.61 5.61 0 0 1-1.164-1.968c-.264-.768-.396-1.632-.396-2.592 0-.952.132-1.812.396-2.58.272-.776.66-1.436 1.164-1.98a5.143 5.143 0 0 1 1.824-1.26c.72-.296 1.528-.444 2.424-.444Zm0 10.848c1.2 0 2.096-.4 2.688-1.2.592-.808.888-1.932.888-3.372 0-1.448-.296-2.576-.888-3.384-.592-.808-1.488-1.212-2.688-1.212-.608 0-1.14.104-1.596.312a3.015 3.015 0 0 0-1.128.9c-.296.392-.52.876-.672 1.452a7.882 7.882 0 0 0-.216 1.932c0 1.44.296 2.564.888 3.372.6.8 1.508 1.2 2.724 1.2Zm18.94-8.868v7.296c0 .512.123.892.371 1.14.248.248.564.372.948.372.232 0 .428-.028.588-.084.168-.064.312-.132.432-.204.12-.072.22-.136.3-.192.08-.064.152-.096.216-.096.072 0 .128.016.168.048a.553.553 0 0 1 .144.156l.624 1.02a4.058 4.058 0 0 1-1.332.816 4.64 4.64 0 0 1-1.62.288c-.952 0-1.688-.268-2.208-.804-.512-.536-.768-1.308-.768-2.316v-7.44h-5.628V38h-2.148V27.668l-1.344-.156a1.19 1.19 0 0 1-.42-.18.46.46 0 0 1-.156-.372v-.876h1.92v-1.176c0-.696.096-1.312.288-1.848.2-.544.48-1 .84-1.368a3.58 3.58 0 0 1 1.32-.852c.512-.192 1.088-.288 1.728-.288.544 0 1.044.08 1.5.24l-.048 1.068c-.016.192-.124.296-.324.312a9.895 9.895 0 0 1-.78.024c-.368 0-.704.048-1.008.144a1.898 1.898 0 0 0-.768.468c-.216.216-.384.5-.504.852-.112.352-.168.788-.168 1.308v1.116h5.772l.48-3.78a.576.576 0 0 1 .168-.288.48.48 0 0 1 .336-.12h1.08v4.188h3.504v1.548h-3.504Z" fill="#E9E9E9"/></symbol><symbol fill="none" id="sprite-facebook" viewBox="0 0 16 23"><title>facebook</title><path fill-rule="evenodd" clip-rule="evenodd" d="M15.155 4.261h-4.261c-.503 0-1.064.547-1.064 1.279v2.545h5.325v3.626H9.83v10.891H4.8v-10.89H.242V8.084H4.8V5.949C4.8 2.888 7.371.397 10.894.397h4.261v3.864Z" fill="#fff"/></symbol><symbol fill="none" id="sprite-instagram" viewBox="0 0 25 25"><title>instagram</title><path fill-rule="evenodd" clip-rule="evenodd" d="M12.5 0C9.105 0 8.68.014 7.346.075c-1.33.06-2.239.272-3.034.581a6.135 6.135 0 0 0-2.214 1.442A6.128 6.128 0 0 0 .656 4.312c-.309.795-.52 1.704-.58 3.034C.013 8.68 0 9.106 0 12.5c0 3.395.014 3.82.075 5.154.06 1.33.272 2.239.581 3.034.32.822.747 1.519 1.442 2.214a6.128 6.128 0 0 0 2.214 1.442c.795.309 1.704.52 3.034.58 1.334.062 1.76.076 5.154.076 3.395 0 3.82-.014 5.154-.075 1.33-.06 2.239-.272 3.034-.581a6.127 6.127 0 0 0 2.214-1.442 6.127 6.127 0 0 0 1.442-2.214c.309-.795.52-1.704.58-3.034.062-1.334.076-1.76.076-5.154 0-3.395-.014-3.82-.075-5.154-.06-1.33-.272-2.239-.581-3.034a6.128 6.128 0 0 0-1.442-2.214A6.128 6.128 0 0 0 20.688.656c-.795-.309-1.704-.52-3.034-.58C16.32.013 15.894 0 12.5 0Zm0 2.252c3.338 0 3.733.013 5.051.073 1.219.056 1.88.26 2.321.43.584.227 1 .498 1.437.936.438.437.709.853.935 1.437.172.44.375 1.102.43 2.32.061 1.319.074 1.714.074 5.052 0 3.338-.013 3.733-.073 5.051-.056 1.219-.26 1.88-.43 2.321-.227.584-.498 1-.936 1.437a3.873 3.873 0 0 1-1.437.935c-.44.172-1.102.375-2.32.43-1.319.061-1.714.074-5.052.074-3.338 0-3.733-.013-5.051-.073-1.219-.056-1.88-.26-2.321-.43-.584-.227-1-.498-1.437-.936a3.874 3.874 0 0 1-.935-1.437c-.172-.44-.375-1.102-.43-2.32-.061-1.319-.074-1.714-.074-5.052 0-3.338.013-3.733.073-5.051.056-1.219.26-1.88.43-2.321.227-.584.498-1 .936-1.437a3.873 3.873 0 0 1 1.437-.935c.44-.172 1.102-.375 2.32-.43 1.319-.061 1.714-.074 5.052-.074ZM6.081 12.5a6.419 6.419 0 1 1 12.838 0 6.419 6.419 0 0 1-12.838 0Zm6.419 4.167a4.167 4.167 0 1 1 0-8.334 4.167 4.167 0 0 1 0 8.334Zm6.672-9.34a1.5 1.5 0 1 0 0-3 1.5 1.5 0 0 0 0 3Z" fill="#fff"/></symbol><symbol fill="none" id="sprite-laundry" viewBox="0 0 26 32"><title>laundry</title><path d="M8.52 23.648a6.345 6.345 0 0 0 8.96 0 6.345 6.345 0 0 0 0-8.962l-8.96 8.962ZM22.5.181 3.5.167A3.156 3.156 0 0 0 .333 3.333v25.334A3.156 3.156 0 0 0 3.5 31.833h19a3.156 3.156 0 0 0 3.167-3.166V3.333c0-1.757-1.41-3.15-3.167-3.15ZM9.833 3.333c.871 0 1.584.713 1.584 1.584 0 .87-.713 1.583-1.584 1.583-.87 0-1.583-.713-1.583-1.583 0-.871.712-1.584 1.583-1.584Zm-4.75 0c.871 0 1.584.713 1.584 1.584 0 .87-.713 1.583-1.584 1.583-.87 0-1.583-.713-1.583-1.583 0-.871.712-1.584 1.583-1.584ZM13 28.667c-5.24 0-9.5-4.26-9.5-9.5 0-5.241 4.26-9.5 9.5-9.5s9.5 4.259 9.5 9.5c0 5.24-4.26 9.5-9.5 9.5Z" fill="#007FDB"/></symbol><symbol fill="none" id="sprite-pinterest" viewBox="0 0 25 25"><title>pinterest</title><path fill-rule="evenodd" clip-rule="evenodd" d="M12.5 0C5.599 0 0 5.596 0 12.5c0 5.118 3.078 9.516 7.484 11.449-.036-.872-.006-1.921.216-2.87l1.608-6.811s-.398-.799-.398-1.979c0-1.852 1.074-3.235 2.41-3.235 1.137 0 1.686.854 1.686 1.877 0 1.142-.729 2.852-1.104 4.435-.313 1.327.665 2.408 1.973 2.408 2.368 0 3.963-3.042 3.963-6.646 0-2.739-1.845-4.79-5.2-4.79-3.792 0-6.154 2.827-6.154 5.985 0 1.09.32 1.858.823 2.452.233.275.263.383.18.698-.06.228-.197.784-.255 1.003-.083.316-.34.43-.624.313-1.748-.713-2.561-2.626-2.561-4.776 0-3.55 2.994-7.81 8.933-7.81 4.773 0 7.914 3.456 7.914 7.161 0 4.904-2.725 8.568-6.745 8.568-1.348 0-2.618-.73-3.054-1.557 0 0-.726 2.88-.879 3.435-.264.963-.783 1.927-1.258 2.677a12.49 12.49 0 0 0 3.543.513C19.404 25 25 19.404 25 12.5S19.404 0 12.5 0Z" fill="#fff"/></symbol><symbol fill="none" id="sprite-transfer" viewBox="0 0 30 27"><title>transfer</title><path d="M25.957 2.516a2.366 2.366 0 0 0-2.249-1.6H6.292a2.38 2.38 0 0 0-2.249 1.6L.75 12v12.667c0 .87.712 1.583 1.583 1.583h1.584c.87 0 1.583-.712 1.583-1.583v-1.584h19v1.584c0 .87.712 1.583 1.583 1.583h1.584c.87 0 1.583-.712 1.583-1.583V12l-3.293-9.484ZM6.292 18.333a2.372 2.372 0 0 1-2.375-2.375 2.372 2.372 0 0 1 2.375-2.375 2.372 2.372 0 0 1 2.375 2.375 2.372 2.372 0 0 1-2.375 2.375Zm17.416 0a2.372 2.372 0 0 1-2.375-2.375 2.372 2.372 0 0 1 2.375-2.375 2.372 2.372 0 0 1 2.375 2.375 2.372 2.372 0 0 1-2.375 2.375ZM3.917 10.417l2.375-7.125h17.416l2.375 7.125H3.917Z" fill="#007FDB"/></symbol><symbol fill="none" id="sprite-wifi" viewBox="0 0 36 25"><title>wifi</title><path d="m.583 7.25 3.167 3.167c7.87-7.87 20.63-7.87 28.5 0l3.167-3.167C25.806-2.36 10.21-2.36.583 7.25ZM13.25 19.917l4.75 4.75 4.75-4.75c-2.613-2.629-6.872-2.629-9.5 0Zm-6.333-6.334 3.166 3.167c4.37-4.37 11.464-4.37 15.834 0l3.166-3.167c-6.111-6.111-16.039-6.111-22.166 0Z" fill="#007FDB"/></symbol></svg>