<svg width="25" height="25" viewBox="0 0 25 25" fill="none" xmlns="http://www.w3.org/2000/svg">
<path fill-rule="evenodd" clip-rule="evenodd" d="M12.5007 0C5.59769 0 0 5.59622 0 12.5007C0 17.6178 3.07814 22.0159 7.48369 23.9489C7.44841 23.0772 7.4778 22.0277 7.69977 21.0781C7.94084 20.0637 9.30794 14.2677 9.30794 14.2677C9.30794 14.2677 8.90956 13.4695 8.90956 12.2891C8.90956 10.4369 9.98412 9.05363 11.3203 9.05363C12.4566 9.05363 13.0064 9.90769 13.0064 10.9308C13.0064 12.073 12.2773 13.7826 11.9025 15.3657C11.5893 16.6931 12.5669 17.7736 13.8752 17.7736C16.2433 17.7736 17.8383 14.7322 17.8383 11.1278C17.8383 8.38919 15.9934 6.33856 12.6374 6.33856C8.84636 6.33856 6.48409 9.16534 6.48409 12.3229C6.48409 13.4136 6.80455 14.1809 7.30728 14.7748C7.53955 15.0497 7.57041 15.1585 7.48663 15.473C7.42783 15.7009 7.28964 16.2566 7.23231 16.4756C7.14853 16.7916 6.89275 16.9062 6.60758 16.7887C4.85977 16.0758 4.04686 14.1633 4.04686 12.0127C4.04686 8.46269 7.04122 4.20269 12.98 4.20269C17.753 4.20269 20.8944 7.65861 20.8944 11.3644C20.8944 16.2683 18.1691 19.9316 14.1486 19.9316C12.8006 19.9316 11.5305 19.2023 11.0954 18.3748C11.0954 18.3748 10.3693 21.2545 10.2164 21.8102C9.95178 22.773 9.43288 23.7373 8.95808 24.487C10.0826 24.8192 11.2704 25 12.5007 25C19.4038 25 25 19.4038 25 12.5007C25 5.59622 19.4038 0 12.5007 0Z" fill="white"/>
</svg>
