<svg xmlns="http://www.w3.org/2000/svg">
<symbol viewBox="0 0 25 25" id="instagram-icon">
<path fill-rule="evenodd" clip-rule="evenodd" d="M12.5 0C9.1052 0 8.67953 0.014375 7.3463 0.0752083C6.01578 0.135885 5.10714 0.347239 4.31203 0.65625C3.49005 0.975677 2.79297 1.40307 2.09797 2.09797C1.40307 2.79297 0.975677 3.49005 0.65625 4.31203C0.347239 5.10714 0.135885 6.01578 0.0752083 7.34625C0.014375 8.67953 0 9.1052 0 12.5C0 15.8948 0.014375 16.3205 0.0752083 17.6537C0.135885 18.9842 0.347239 19.8928 0.65625 20.688C0.975677 21.51 1.40307 22.207 2.09797 22.902C2.79297 23.5969 3.49005 24.0244 4.31203 24.3438C5.10714 24.6528 6.01578 24.8641 7.3463 24.9248C8.67953 24.9856 9.1052 25 12.5 25C15.8948 25 16.3205 24.9856 17.6537 24.9248C18.9842 24.8641 19.8928 24.6528 20.688 24.3438C21.51 24.0244 22.207 23.5969 22.902 22.902C23.5969 22.207 24.0244 21.51 24.3438 20.688C24.6528 19.8928 24.8641 18.9842 24.9248 17.6537C24.9856 16.3205 25 15.8948 25 12.5C25 9.1052 24.9856 8.67953 24.9248 7.34625C24.8641 6.01578 24.6528 5.10714 24.3438 4.31203C24.0244 3.49005 23.5969 2.79297 22.902 2.09797C22.207 1.40307 21.51 0.975677 20.688 0.65625C19.8928 0.347239 18.9842 0.135885 17.6537 0.0752083C16.3205 0.014375 15.8948 0 12.5 0ZM12.5 2.25223C15.8377 2.25223 16.233 2.265 17.5511 2.32516C18.7698 2.38073 19.4317 2.58433 19.8722 2.75552C20.4556 2.9823 20.872 3.25317 21.3094 3.69062C21.7469 4.12797 22.0177 4.54437 22.2445 5.12786C22.4156 5.56833 22.6192 6.2302 22.6748 7.44891C22.735 8.76698 22.7478 9.16234 22.7478 12.5C22.7478 15.8377 22.735 16.233 22.6748 17.5511C22.6192 18.7698 22.4156 19.4317 22.2445 19.8722C22.0177 20.4556 21.7469 20.872 21.3094 21.3094C20.872 21.7469 20.4556 22.0177 19.8722 22.2445C19.4317 22.4156 18.7698 22.6192 17.5511 22.6748C16.2331 22.735 15.838 22.7478 12.5 22.7478C9.16208 22.7478 8.76683 22.735 7.44891 22.6748C6.2302 22.6192 5.56833 22.4156 5.12786 22.2445C4.54437 22.0177 4.12802 21.7469 3.69058 21.3094C3.25323 20.872 2.9823 20.4556 2.75552 19.8722C2.58433 19.4317 2.38073 18.7698 2.32516 17.5511C2.265 16.233 2.25223 15.8377 2.25223 12.5C2.25223 9.16234 2.265 8.76698 2.32516 7.44891C2.38073 6.2302 2.58433 5.56833 2.75552 5.12786C2.9823 4.54437 3.25317 4.12797 3.69058 3.69062C4.12802 3.25317 4.54437 2.9823 5.12786 2.75552C5.56833 2.58433 6.2302 2.38073 7.44891 2.32516C8.76698 2.265 9.16234 2.25223 12.5 2.25223ZM6.08109 12.5C6.08109 8.95489 8.95489 6.08109 12.5 6.08109C16.0452 6.08109 18.9189 8.95489 18.9189 12.5C18.9189 16.0452 16.0452 18.9189 12.5 18.9189C8.95489 18.9189 6.08109 16.0452 6.08109 12.5ZM12.5 16.6667C10.1988 16.6667 8.33333 14.8012 8.33333 12.5C8.33333 10.1988 10.1988 8.33333 12.5 8.33333C14.8012 8.33333 16.6667 10.1988 16.6667 12.5C16.6667 14.8012 14.8012 16.6667 12.5 16.6667ZM19.1725 7.32745C20.0009 7.32745 20.6725 6.65594 20.6725 5.8275C20.6725 4.99906 20.0009 4.32745 19.1725 4.32745C18.3441 4.32745 17.6725 4.99906 17.6725 5.8275C17.6725 6.65594 18.3441 7.32745 19.1725 7.32745Z" fill="white"/>
</symbol>
<symbol viewBox="0 0 25 25" id="pinterest-icon">
<path fill-rule="evenodd" clip-rule="evenodd" d="M12.5007 0C5.59769 0 0 5.59622 0 12.5007C0 17.6178 3.07814 22.0159 7.48369 23.9489C7.44841 23.0772 7.4778 22.0277 7.69977 21.0781C7.94084 20.0637 9.30794 14.2677 9.30794 14.2677C9.30794 14.2677 8.90956 13.4695 8.90956 12.2891C8.90956 10.4369 9.98412 9.05363 11.3203 9.05363C12.4566 9.05363 13.0064 9.90769 13.0064 10.9308C13.0064 12.073 12.2773 13.7826 11.9025 15.3657C11.5893 16.6931 12.5669 17.7736 13.8752 17.7736C16.2433 17.7736 17.8383 14.7322 17.8383 11.1278C17.8383 8.38919 15.9934 6.33856 12.6374 6.33856C8.84636 6.33856 6.48409 9.16534 6.48409 12.3229C6.48409 13.4136 6.80455 14.1809 7.30728 14.7748C7.53955 15.0497 7.57041 15.1585 7.48663 15.473C7.42783 15.7009 7.28964 16.2566 7.23231 16.4756C7.14853 16.7916 6.89275 16.9062 6.60758 16.7887C4.85977 16.0758 4.04686 14.1633 4.04686 12.0127C4.04686 8.46269 7.04122 4.20269 12.98 4.20269C17.753 4.20269 20.8944 7.65861 20.8944 11.3644C20.8944 16.2683 18.1691 19.9316 14.1486 19.9316C12.8006 19.9316 11.5305 19.2023 11.0954 18.3748C11.0954 18.3748 10.3693 21.2545 10.2164 21.8102C9.95178 22.773 9.43288 23.7373 8.95808 24.487C10.0826 24.8192 11.2704 25 12.5007 25C19.4038 25 25 19.4038 25 12.5007C25 5.59622 19.4038 0 12.5007 0Z" fill="white"/>
</symbol>
<symbol viewBox="0 0 16 23" id="facebook-icon">
<path fill-rule="evenodd" clip-rule="evenodd" d="M15.1551 4.26145H10.8937C10.3913 4.26145 9.83032 4.80833 9.83032 5.53958V8.08489H15.1551V11.7115H9.83032V22.602H4.80019V11.7115H0.24231V8.08489H4.80019V5.94895C4.80019 2.88802 7.37097 0.397385 10.8937 0.397385H15.1551V4.26145Z" fill="red"/>
</symbol>
<symbol viewBox="0 0 36 25" id="wifi-icon">
<path d="M0.583374 7.25L3.75004 10.4167C11.6192 2.5475 24.3809 2.5475 32.25 10.4167L35.4167 7.25C25.8059 -2.36084 10.21 -2.36084 0.583374 7.25ZM13.25 19.9167L18 24.6667L22.75 19.9167C20.1375 17.2883 15.8784 17.2883 13.25 19.9167ZM6.91671 13.5833L10.0834 16.75C14.4534 12.38 21.5467 12.38 25.9167 16.75L29.0834 13.5833C22.9717 7.47166 13.0442 7.47166 6.91671 13.5833Z" fill="#007FDB"/>
</symbol>
<symbol viewBox="0 0 30 27" id="transfer-icon">
<path d="M25.9567 2.51579C25.64 1.58163 24.7533 0.916626 23.7083 0.916626H6.29167C5.24667 0.916626 4.37583 1.58163 4.04333 2.51579L0.75 12V24.6666C0.75 25.5375 1.4625 26.25 2.33333 26.25H3.91667C4.7875 26.25 5.5 25.5375 5.5 24.6666V23.0833H24.5V24.6666C24.5 25.5375 25.2125 26.25 26.0833 26.25H27.6667C28.5375 26.25 29.25 25.5375 29.25 24.6666V12L25.9567 2.51579ZM6.29167 18.3333C4.9775 18.3333 3.91667 17.2725 3.91667 15.9583C3.91667 14.6441 4.9775 13.5833 6.29167 13.5833C7.60583 13.5833 8.66667 14.6441 8.66667 15.9583C8.66667 17.2725 7.60583 18.3333 6.29167 18.3333ZM23.7083 18.3333C22.3942 18.3333 21.3333 17.2725 21.3333 15.9583C21.3333 14.6441 22.3942 13.5833 23.7083 13.5833C25.0225 13.5833 26.0833 14.6441 26.0833 15.9583C26.0833 17.2725 25.0225 18.3333 23.7083 18.3333ZM3.91667 10.4166L6.29167 3.29163H23.7083L26.0833 10.4166H3.91667Z" fill="#007FDB"/>
</symbol>
<symbol viewBox="0 0 29 30" id="breakfast-icon">
<path d="M25.6666 0.75H0.333313V16.5833C0.333313 20.0825 3.16748 22.9167 6.66665 22.9167H16.1666C19.6658 22.9167 22.5 20.0825 22.5 16.5833V11.8333H25.6666C27.4241 11.8333 28.8333 10.4083 28.8333 8.66667V3.91667C28.8333 2.15917 27.4241 0.75 25.6666 0.75ZM25.6666 8.66667H22.5V3.91667H25.6666V8.66667ZM0.333313 26.0833H25.6666V29.25H0.333313V26.0833Z" fill="#007FDB"/>
</symbol>
<symbol viewBox="0 0 26 32">
<path d="M8.51915 23.6475C10.9891 26.1175 15.0108 26.1175 17.4808 23.6475C19.9508 21.1775 19.9508 17.1558 17.4808 14.6858L8.51915 23.6475ZM22.5 0.182459L3.49998 0.166626C1.74248 0.166626 0.333313 1.57579 0.333313 3.33329V28.6666C0.333313 30.4241 1.74248 31.8333 3.49998 31.8333H22.5C24.2575 31.8333 25.6666 30.4241 25.6666 28.6666V3.33329C25.6666 1.57579 24.2575 0.182459 22.5 0.182459ZM9.83331 3.33329C10.7041 3.33329 11.4166 4.04579 11.4166 4.91663C11.4166 5.78746 10.7041 6.49996 9.83331 6.49996C8.96248 6.49996 8.24998 5.78746 8.24998 4.91663C8.24998 4.04579 8.96248 3.33329 9.83331 3.33329ZM5.08331 3.33329C5.95415 3.33329 6.66665 4.04579 6.66665 4.91663C6.66665 5.78746 5.95415 6.49996 5.08331 6.49996C4.21248 6.49996 3.49998 5.78746 3.49998 4.91663C3.49998 4.04579 4.21248 3.33329 5.08331 3.33329ZM13 28.6666C7.75915 28.6666 3.49998 24.4075 3.49998 19.1666C3.49998 13.9258 7.75915 9.66663 13 9.66663C18.2408 9.66663 22.5 13.9258 22.5 19.1666C22.5 24.4075 18.2408 28.6666 13 28.6666Z" fill="#007FDB"/>
</symbol>
</svg>