<svg xmlns="http://www.w3.org/2000/svg">
<symbol viewBox="0 0 37 39" id="ecoloft-icon">
<path d="M11.804 16.104L11.792 18H1.196V0.803999H11.792V2.7H3.524V8.412H10.22V10.236H3.524V16.104H11.804ZM22.4176 8.004C22.3536 8.092 22.2896 8.16 22.2256 8.208C22.1616 8.256 22.0736 8.28 21.9616 8.28C21.8416 8.28 21.7096 8.232 21.5656 8.136C21.4216 8.032 21.2416 7.92 21.0256 7.8C20.8176 7.68 20.5576 7.572 20.2456 7.476C19.9416 7.372 19.5656 7.32 19.1176 7.32C18.5176 7.32 17.9896 7.428 17.5336 7.644C17.0776 7.852 16.6936 8.156 16.3816 8.556C16.0776 8.956 15.8456 9.44 15.6856 10.008C15.5336 10.576 15.4576 11.212 15.4576 11.916C15.4576 12.652 15.5416 13.308 15.7096 13.884C15.8776 14.452 16.1136 14.932 16.4176 15.324C16.7296 15.708 17.1016 16.004 17.5336 16.212C17.9736 16.412 18.4656 16.512 19.0096 16.512C19.5296 16.512 19.9576 16.452 20.2936 16.332C20.6296 16.204 20.9056 16.064 21.1216 15.912C21.3456 15.76 21.5296 15.624 21.6736 15.504C21.8256 15.376 21.9736 15.312 22.1176 15.312C22.2936 15.312 22.4296 15.38 22.5256 15.516L23.1256 16.296C22.8616 16.624 22.5616 16.904 22.2256 17.136C21.8896 17.368 21.5256 17.564 21.1336 17.724C20.7496 17.876 20.3456 17.988 19.9216 18.06C19.4976 18.132 19.0656 18.168 18.6256 18.168C17.8656 18.168 17.1576 18.028 16.5016 17.748C15.8536 17.468 15.2896 17.064 14.8096 16.536C14.3296 16 13.9536 15.344 13.6816 14.568C13.4096 13.792 13.2736 12.908 13.2736 11.916C13.2736 11.012 13.3976 10.176 13.6456 9.408C13.9016 8.64 14.2696 7.98 14.7496 7.428C15.2376 6.868 15.8336 6.432 16.5376 6.12C17.2496 5.808 18.0656 5.652 18.9856 5.652C19.8416 5.652 20.5936 5.792 21.2416 6.072C21.8976 6.344 22.4776 6.732 22.9816 7.236L22.4176 8.004ZM30.3316 5.652C31.2196 5.652 32.0196 5.8 32.7316 6.096C33.4436 6.392 34.0516 6.812 34.5556 7.356C35.0596 7.9 35.4436 8.56 35.7076 9.336C35.9796 10.104 36.1156 10.964 36.1156 11.916C36.1156 12.876 35.9796 13.74 35.7076 14.508C35.4436 15.276 35.0596 15.932 34.5556 16.476C34.0516 17.02 33.4436 17.44 32.7316 17.736C32.0196 18.024 31.2196 18.168 30.3316 18.168C29.4356 18.168 28.6276 18.024 27.9076 17.736C27.1956 17.44 26.5876 17.02 26.0836 16.476C25.5796 15.932 25.1916 15.276 24.9196 14.508C24.6556 13.74 24.5236 12.876 24.5236 11.916C24.5236 10.964 24.6556 10.104 24.9196 9.336C25.1916 8.56 25.5796 7.9 26.0836 7.356C26.5876 6.812 27.1956 6.392 27.9076 6.096C28.6276 5.8 29.4356 5.652 30.3316 5.652ZM30.3316 16.5C31.5316 16.5 32.4276 16.1 33.0196 15.3C33.6116 14.492 33.9076 13.368 33.9076 11.928C33.9076 10.48 33.6116 9.352 33.0196 8.544C32.4276 7.736 31.5316 7.332 30.3316 7.332C29.7236 7.332 29.1916 7.436 28.7356 7.644C28.2876 7.852 27.9116 8.152 27.6076 8.544C27.3116 8.936 27.0876 9.42 26.9356 9.996C26.7916 10.564 26.7196 11.208 26.7196 11.928C26.7196 13.368 27.0156 14.492 27.6076 15.3C28.2076 16.1 29.1156 16.5 30.3316 16.5ZM2.9 20.324V38H0.764V20.324H2.9ZM11.4879 25.652C12.3759 25.652 13.1759 25.8 13.8879 26.096C14.5999 26.392 15.2079 26.812 15.7119 27.356C16.2159 27.9 16.5999 28.56 16.8639 29.336C17.1359 30.104 17.2719 30.964 17.2719 31.916C17.2719 32.876 17.1359 33.74 16.8639 34.508C16.5999 35.276 16.2159 35.932 15.7119 36.476C15.2079 37.02 14.5999 37.44 13.8879 37.736C13.1759 38.024 12.3759 38.168 11.4879 38.168C10.5919 38.168 9.78388 38.024 9.06388 37.736C8.35188 37.44 7.74388 37.02 7.23988 36.476C6.73588 35.932 6.34788 35.276 6.07588 34.508C5.81188 33.74 5.67988 32.876 5.67988 31.916C5.67988 30.964 5.81188 30.104 6.07588 29.336C6.34788 28.56 6.73588 27.9 7.23988 27.356C7.74388 26.812 8.35188 26.392 9.06388 26.096C9.78388 25.8 10.5919 25.652 11.4879 25.652ZM11.4879 36.5C12.6879 36.5 13.5839 36.1 14.1759 35.3C14.7679 34.492 15.0639 33.368 15.0639 31.928C15.0639 30.48 14.7679 29.352 14.1759 28.544C13.5839 27.736 12.6879 27.332 11.4879 27.332C10.8799 27.332 10.3479 27.436 9.89188 27.644C9.44388 27.852 9.06788 28.152 8.76388 28.544C8.46788 28.936 8.24388 29.42 8.09188 29.996C7.94788 30.564 7.87588 31.208 7.87588 31.928C7.87588 33.368 8.17188 34.492 8.76388 35.3C9.36388 36.1 10.2719 36.5 11.4879 36.5ZM30.4272 27.632V34.928C30.4272 35.44 30.5512 35.82 30.7993 36.068C31.0473 36.316 31.3633 36.44 31.7473 36.44C31.9793 36.44 32.1753 36.412 32.3353 36.356C32.5033 36.292 32.6473 36.224 32.7673 36.152C32.8873 36.08 32.9873 36.016 33.0673 35.96C33.1473 35.896 33.2193 35.864 33.2833 35.864C33.3553 35.864 33.4113 35.88 33.4513 35.912C33.4993 35.944 33.5473 35.996 33.5953 36.068L34.2193 37.088C33.8513 37.432 33.4073 37.704 32.8873 37.904C32.3673 38.096 31.8273 38.192 31.2673 38.192C30.3153 38.192 29.5793 37.924 29.0593 37.388C28.5473 36.852 28.2913 36.08 28.2913 35.072V27.632H22.6633V38H20.5153V27.668L19.1713 27.512C19.0033 27.472 18.8633 27.412 18.7513 27.332C18.6473 27.244 18.5953 27.12 18.5953 26.96V26.084H20.5153V24.908C20.5153 24.212 20.6113 23.596 20.8033 23.06C21.0033 22.516 21.2833 22.06 21.6433 21.692C22.0113 21.316 22.4513 21.032 22.9633 20.84C23.4753 20.648 24.0513 20.552 24.6913 20.552C25.2353 20.552 25.7353 20.632 26.1913 20.792L26.1433 21.86C26.1273 22.052 26.0193 22.156 25.8193 22.172C25.6273 22.188 25.3673 22.196 25.0393 22.196C24.6713 22.196 24.3353 22.244 24.0312 22.34C23.7353 22.436 23.4793 22.592 23.2633 22.808C23.0473 23.024 22.8793 23.308 22.7593 23.66C22.6473 24.012 22.5913 24.448 22.5913 24.968V26.084H28.3633L28.8433 22.304C28.8753 22.184 28.9313 22.088 29.0113 22.016C29.0993 21.936 29.2113 21.896 29.3473 21.896H30.4272V26.084H33.9313V27.632H30.4272Z"/>
</symbol>
<symbol viewBox="0 0 25 25" id="instagram-icon">
<path fill-rule="evenodd" clip-rule="evenodd" d="M12.5 0C9.1052 0 8.67953 0.014375 7.3463 0.0752083C6.01578 0.135885 5.10714 0.347239 4.31203 0.65625C3.49005 0.975677 2.79297 1.40307 2.09797 2.09797C1.40307 2.79297 0.975677 3.49005 0.65625 4.31203C0.347239 5.10714 0.135885 6.01578 0.0752083 7.34625C0.014375 8.67953 0 9.1052 0 12.5C0 15.8948 0.014375 16.3205 0.0752083 17.6537C0.135885 18.9842 0.347239 19.8928 0.65625 20.688C0.975677 21.51 1.40307 22.207 2.09797 22.902C2.79297 23.5969 3.49005 24.0244 4.31203 24.3438C5.10714 24.6528 6.01578 24.8641 7.3463 24.9248C8.67953 24.9856 9.1052 25 12.5 25C15.8948 25 16.3205 24.9856 17.6537 24.9248C18.9842 24.8641 19.8928 24.6528 20.688 24.3438C21.51 24.0244 22.207 23.5969 22.902 22.902C23.5969 22.207 24.0244 21.51 24.3438 20.688C24.6528 19.8928 24.8641 18.9842 24.9248 17.6537C24.9856 16.3205 25 15.8948 25 12.5C25 9.1052 24.9856 8.67953 24.9248 7.34625C24.8641 6.01578 24.6528 5.10714 24.3438 4.31203C24.0244 3.49005 23.5969 2.79297 22.902 2.09797C22.207 1.40307 21.51 0.975677 20.688 0.65625C19.8928 0.347239 18.9842 0.135885 17.6537 0.0752083C16.3205 0.014375 15.8948 0 12.5 0ZM12.5 2.25223C15.8377 2.25223 16.233 2.265 17.5511 2.32516C18.7698 2.38073 19.4317 2.58433 19.8722 2.75552C20.4556 2.9823 20.872 3.25317 21.3094 3.69062C21.7469 4.12797 22.0177 4.54437 22.2445 5.12786C22.4156 5.56833 22.6192 6.2302 22.6748 7.44891C22.735 8.76698 22.7478 9.16234 22.7478 12.5C22.7478 15.8377 22.735 16.233 22.6748 17.5511C22.6192 18.7698 22.4156 19.4317 22.2445 19.8722C22.0177 20.4556 21.7469 20.872 21.3094 21.3094C20.872 21.7469 20.4556 22.0177 19.8722 22.2445C19.4317 22.4156 18.7698 22.6192 17.5511 22.6748C16.2331 22.735 15.838 22.7478 12.5 22.7478C9.16208 22.7478 8.76683 22.735 7.44891 22.6748C6.2302 22.6192 5.56833 22.4156 5.12786 22.2445C4.54437 22.0177 4.12802 21.7469 3.69058 21.3094C3.25323 20.872 2.9823 20.4556 2.75552 19.8722C2.58433 19.4317 2.38073 18.7698 2.32516 17.5511C2.265 16.233 2.25223 15.8377 2.25223 12.5C2.25223 9.16234 2.265 8.76698 2.32516 7.44891C2.38073 6.2302 2.58433 5.56833 2.75552 5.12786C2.9823 4.54437 3.25317 4.12797 3.69058 3.69062C4.12802 3.25317 4.54437 2.9823 5.12786 2.75552C5.56833 2.58433 6.2302 2.38073 7.44891 2.32516C8.76698 2.265 9.16234 2.25223 12.5 2.25223ZM6.08109 12.5C6.08109 8.95489 8.95489 6.08109 12.5 6.08109C16.0452 6.08109 18.9189 8.95489 18.9189 12.5C18.9189 16.0452 16.0452 18.9189 12.5 18.9189C8.95489 18.9189 6.08109 16.0452 6.08109 12.5ZM12.5 16.6667C10.1988 16.6667 8.33333 14.8012 8.33333 12.5C8.33333 10.1988 10.1988 8.33333 12.5 8.33333C14.8012 8.33333 16.6667 10.1988 16.6667 12.5C16.6667 14.8012 14.8012 16.6667 12.5 16.6667ZM19.1725 7.32745C20.0009 7.32745 20.6725 6.65594 20.6725 5.8275C20.6725 4.99906 20.0009 4.32745 19.1725 4.32745C18.3441 4.32745 17.6725 4.99906 17.6725 5.8275C17.6725 6.65594 18.3441 7.32745 19.1725 7.32745Z" fill="white"/>
</symbol>
<symbol viewBox="0 0 25 25" id="pinterest-icon">
<path fill-rule="evenodd" clip-rule="evenodd" d="M12.5007 0C5.59769 0 0 5.59622 0 12.5007C0 17.6178 3.07814 22.0159 7.48369 23.9489C7.44841 23.0772 7.4778 22.0277 7.69977 21.0781C7.94084 20.0637 9.30794 14.2677 9.30794 14.2677C9.30794 14.2677 8.90956 13.4695 8.90956 12.2891C8.90956 10.4369 9.98412 9.05363 11.3203 9.05363C12.4566 9.05363 13.0064 9.90769 13.0064 10.9308C13.0064 12.073 12.2773 13.7826 11.9025 15.3657C11.5893 16.6931 12.5669 17.7736 13.8752 17.7736C16.2433 17.7736 17.8383 14.7322 17.8383 11.1278C17.8383 8.38919 15.9934 6.33856 12.6374 6.33856C8.84636 6.33856 6.48409 9.16534 6.48409 12.3229C6.48409 13.4136 6.80455 14.1809 7.30728 14.7748C7.53955 15.0497 7.57041 15.1585 7.48663 15.473C7.42783 15.7009 7.28964 16.2566 7.23231 16.4756C7.14853 16.7916 6.89275 16.9062 6.60758 16.7887C4.85977 16.0758 4.04686 14.1633 4.04686 12.0127C4.04686 8.46269 7.04122 4.20269 12.98 4.20269C17.753 4.20269 20.8944 7.65861 20.8944 11.3644C20.8944 16.2683 18.1691 19.9316 14.1486 19.9316C12.8006 19.9316 11.5305 19.2023 11.0954 18.3748C11.0954 18.3748 10.3693 21.2545 10.2164 21.8102C9.95178 22.773 9.43288 23.7373 8.95808 24.487C10.0826 24.8192 11.2704 25 12.5007 25C19.4038 25 25 19.4038 25 12.5007C25 5.59622 19.4038 0 12.5007 0Z" fill="white"/>
</symbol>
<symbol viewBox="0 0 16 23" id="facebook-icon">
<path fill-rule="evenodd" clip-rule="evenodd" d="M15.1551 4.26145H10.8937C10.3913 4.26145 9.83032 4.80833 9.83032 5.53958V8.08489H15.1551V11.7115H9.83032V22.602H4.80019V11.7115H0.24231V8.08489H4.80019V5.94895C4.80019 2.88802 7.37097 0.397385 10.8937 0.397385H15.1551V4.26145Z" fill="white"/>
</symbol>
<symbol viewBox="0 0 36 25" id="wifi-icon">
<path d="M0.583374 7.25L3.75004 10.4167C11.6192 2.5475 24.3809 2.5475 32.25 10.4167L35.4167 7.25C25.8059 -2.36084 10.21 -2.36084 0.583374 7.25ZM13.25 19.9167L18 24.6667L22.75 19.9167C20.1375 17.2883 15.8784 17.2883 13.25 19.9167ZM6.91671 13.5833L10.0834 16.75C14.4534 12.38 21.5467 12.38 25.9167 16.75L29.0834 13.5833C22.9717 7.47166 13.0442 7.47166 6.91671 13.5833Z" fill="#007FDB"/>
</symbol>
<symbol viewBox="0 0 30 27" id="transfer-icon">
<path d="M25.9567 2.51579C25.64 1.58163 24.7533 0.916626 23.7083 0.916626H6.29167C5.24667 0.916626 4.37583 1.58163 4.04333 2.51579L0.75 12V24.6666C0.75 25.5375 1.4625 26.25 2.33333 26.25H3.91667C4.7875 26.25 5.5 25.5375 5.5 24.6666V23.0833H24.5V24.6666C24.5 25.5375 25.2125 26.25 26.0833 26.25H27.6667C28.5375 26.25 29.25 25.5375 29.25 24.6666V12L25.9567 2.51579ZM6.29167 18.3333C4.9775 18.3333 3.91667 17.2725 3.91667 15.9583C3.91667 14.6441 4.9775 13.5833 6.29167 13.5833C7.60583 13.5833 8.66667 14.6441 8.66667 15.9583C8.66667 17.2725 7.60583 18.3333 6.29167 18.3333ZM23.7083 18.3333C22.3942 18.3333 21.3333 17.2725 21.3333 15.9583C21.3333 14.6441 22.3942 13.5833 23.7083 13.5833C25.0225 13.5833 26.0833 14.6441 26.0833 15.9583C26.0833 17.2725 25.0225 18.3333 23.7083 18.3333ZM3.91667 10.4166L6.29167 3.29163H23.7083L26.0833 10.4166H3.91667Z" fill="#007FDB"/>
</symbol>
<symbol viewBox="0 0 29 30" id="breakfast-icon">
<path d="M25.6666 0.75H0.333313V16.5833C0.333313 20.0825 3.16748 22.9167 6.66665 22.9167H16.1666C19.6658 22.9167 22.5 20.0825 22.5 16.5833V11.8333H25.6666C27.4241 11.8333 28.8333 10.4083 28.8333 8.66667V3.91667C28.8333 2.15917 27.4241 0.75 25.6666 0.75ZM25.6666 8.66667H22.5V3.91667H25.6666V8.66667ZM0.333313 26.0833H25.6666V29.25H0.333313V26.0833Z" fill="#007FDB"/>
</symbol>
</svg>